<?xml version="1.0" encoding="utf-8"?>
<!-- Generator: Adobe Illustrator 23.0.1, SVG Export Plug-In . SVG Version: 6.00 Build 0)  -->
<svg version="1.1" id="instagram-unauth-icon" xmlns="http://www.w3.org/2000/svg" xmlns:xlink="http://www.w3.org/1999/xlink"
	 x="0px" y="0px" viewBox="0 0 64 64" style="enable-background:new 0 0 64 64;" xml:space="preserve">
<style type="text/css">
	.st0{fill:#FFFFFF;}
</style>
<path class="st0" d="M46.9,25.8c-0.1-1.6-0.3-2.7-0.7-3.6c-0.4-1-0.9-1.8-1.7-2.7s-1.7-1.3-2.7-1.7c-1-0.4-2-0.6-3.6-0.7
	C36.6,17,36.1,17,32,17s-4.6,0-6.2,0.1c-1.6,0.1-2.7,0.3-3.6,0.7c-1,0.4-1.8,0.9-2.7,1.7s-1.3,1.7-1.7,2.7c-0.4,1-0.6,2-0.7,3.6
	C17,27.4,17,27.9,17,32s0,4.6,0.1,6.2c0.1,1.6,0.3,2.7,0.7,3.6c0.4,1,0.9,1.8,1.7,2.7c0.8,0.8,1.7,1.3,2.7,1.7c1,0.4,2,0.6,3.6,0.7
	C27.4,47,27.9,47,32,47s4.6,0,6.2-0.1c1.6-0.1,2.7-0.3,3.6-0.7c1-0.4,1.8-0.9,2.7-1.7c0.8-0.8,1.3-1.7,1.7-2.7c0.4-1,0.6-2,0.7-3.6
	C47,36.6,47,36.1,47,32S47,27.4,46.9,25.8z M44.2,38.1c-0.1,1.5-0.3,2.3-0.5,2.8c-0.3,0.7-0.6,1.2-1.1,1.7c-0.5,0.5-1,0.8-1.7,1.1
	c-0.5,0.2-1.3,0.5-2.8,0.5c-1.6,0.1-2.1,0.1-6.1,0.1s-4.5,0-6.1-0.1c-1.5-0.1-2.3-0.3-2.8-0.5c-0.7-0.3-1.2-0.6-1.7-1.1
	s-0.9-1-1.1-1.7c-0.2-0.5-0.5-1.3-0.5-2.8c-0.1-1.6-0.1-2.1-0.1-6.1s0-4.5,0.1-6.1c0.1-1.5,0.3-2.3,0.5-2.8c0.3-0.7,0.6-1.2,1.1-1.7
	s1-0.9,1.7-1.1c0.5-0.2,1.3-0.5,2.8-0.5c1.6-0.1,2.1-0.1,6.1-0.1s4.5,0,6.1,0.1c1.5,0.1,2.3,0.3,2.8,0.5c0.7,0.3,1.2,0.6,1.7,1.1
	c0.5,0.5,0.8,1,1.1,1.7c0.2,0.5,0.5,1.3,0.5,2.8c0.1,1.6,0.1,2.1,0.1,6.1S44.3,36.5,44.2,38.1z M32,24.3c-4.3,0-7.7,3.4-7.7,7.7
	s3.4,7.7,7.7,7.7s7.7-3.4,7.7-7.7S36.3,24.3,32,24.3z M32,37c-2.8,0-5-2.2-5-5c0-2.8,2.2-5,5-5s5,2.2,5,5C37,34.8,34.8,37,32,37z
	 M40,22.2c-1,0-1.8,0.8-1.8,1.8s0.8,1.8,1.8,1.8s1.8-0.8,1.8-1.8S41,22.2,40,22.2z"/>
</svg>
